<?xml version="1.0" encoding="utf-8"?>
<!-- Generator: Adobe Illustrator 22.0.1, SVG Export Plug-In . SVG Version: 6.00 Build 0)  -->
<svg version="1.1" id="Capa_1" xmlns="http://www.w3.org/2000/svg" xmlns:xlink="http://www.w3.org/1999/xlink" x="0px" y="0px"
	 viewBox="0 0 499.4 499.4" style="enable-background:new 0 0 499.4 499.4;" xml:space="preserve">
<style type="text/css">
	.st0{fill:#1354BC;}
	.st1{fill:#4375F1;}
	.st2{fill:#F2F2F2;}
	.st3{fill:#ACB3BA;}
	.st4{fill:#CDD6E0;}
</style>
<g>
	<rect x="303.6" y="113.1" class="st0" width="45.9" height="89.7"/>
	<rect x="151.4" y="113.1" class="st0" width="45.9" height="89.7"/>
	<path class="st0" d="M440.2,369.6H60.6c-18.8,0-33.4,14.6-33.4,33.4s14.6,33.4,33.4,33.4h380.6c18.8,0,33.4-14.6,33.4-33.4
		C473.5,384.2,458.9,369.6,440.2,369.6z"/>
</g>
<g>
	<path class="st1" d="M60.6,369.6h380.6c12.5,0,22.9,7.3,29.2,16.7c-7.3-29.2-18.8-68.8-36.5-108.4
		C402.6,208,332.8,163.2,255.6,162.2c-3.1,0-6.3,0-8.3,0c-78.2,0-148.1,45.9-179.3,115.7c-17.8,39.6-29.2,79.2-36.5,108.4
		C36.7,375.9,48.1,369.6,60.6,369.6z"/>
	<path class="st1" d="M493.3,204.9c-5.2,9.4-15.6,15.6-27.1,15.6H413c-14.6,0-27.1-9.4-30.2-24c-4.2-21.9,6.3-46.9,6.3-46.9
		c-24-18.8-79.2-26.1-112.6-29.2c-17.7-1-35.5-1-53.2,0c-33.4,3.1-88.6,10.4-112.6,29.2c0,0,10.4,26.1,6.3,48
		c-3.1,13.6-15.6,22.9-30.2,22.9H34.6c-11.5,0-21.9-6.3-27.1-15.6c-5.2-10.4-8.3-21.9-7.3-33.4c0-2.1,1-5.2,1-8.3
		c0,0,1-74,168.9-95.9c0,0,36.5-5.2,68.8-4.2c6.3,0,13.6,0,19.8,0c33.4-1,68.8,4.2,68.8,4.2c167.9,20.9,168.9,95.9,168.9,95.9
		c1,3.1,1,5.2,1,8.3C501.7,183,498.6,195.5,493.3,204.9z"/>
</g>
<g>
	<path class="st0" d="M7.5,191.3c5.2,9.4,15.6,14.6,27.1,14.6h53.2c14.4,0,26.5-9.2,29.8-23.5c0.1-0.4,0.1-0.8,0.1-1.2
		c-0.1-1.3-0.3-3.5-0.3-3.5c1,6.3,1.7,12.5-0.4,18.8c-1.5,13.4-15.6,24-30.2,24H34.6c-10.4,0-21.9-5.2-28.1-14.6
		c-4.2-7.3-6.3-16.7-6.3-26.1C2.3,184,5.4,188.1,7.5,191.3z"/>
	<path class="st0" d="M492.3,192.3c-5.2,9.4-15.6,14.6-27.1,14.6H412c-14.6,0-27-9.4-30.1-23.9v-0.1c0-1,0.2-2.4,0.2-4.4v0.3
		c-1,6.3-1.4,12.5,0.7,18.7c3.1,13.6,15.6,24,30.2,24h53.2c10.4,0,20.9-5.2,27.1-14.6c5.2-8.3,6.4-17.6,5.9-27
		C496.2,185.1,494.4,189.1,492.3,192.3z"/>
</g>
<ellipse class="st2" cx="250.4" cy="269.5" rx="86.5" ry="71.9"/>
<ellipse class="st3" cx="250.4" cy="269.5" rx="34.4" ry="29.2"/>
<g>
	<ellipse class="st4" cx="250.4" cy="216.3" rx="13.6" ry="11.5"/>
	<ellipse class="st4" cx="250.4" cy="323.7" rx="13.6" ry="11.5"/>
	<path class="st4" d="M305.7,239.3c-5.2,4.2-13.6,4.2-18.8,0c-5.2-4.2-5.2-11.5,0-15.6c5.2-4.2,13.6-4.2,18.8,0
		C310.9,227.8,310.9,235.1,305.7,239.3z"/>
	<path class="st4" d="M215,315.4c-5.2,4.2-13.6,4.2-18.8,0s-5.2-11.5,0-15.6s13.6-4.2,18.8,0C220.2,303.9,220.2,311.2,215,315.4z"/>
	<ellipse class="st4" cx="314" cy="269.5" rx="13.6" ry="11.5"/>
	<ellipse class="st4" cx="186.8" cy="269.5" rx="13.6" ry="11.5"/>
	<path class="st4" d="M285.9,315.4c-5.2-4.2-5.2-11.5,0-15.6s13.6-4.2,18.8,0c5.2,4.2,5.2,11.5,0,15.6
		C300.5,320.6,291.1,320.6,285.9,315.4z"/>
	<path class="st4" d="M195.1,239.3c-5.2-4.2-5.2-11.5,0-15.6c5.2-4.2,13.6-4.2,18.8,0s5.2,11.5,0,15.6
		C209.7,244.5,200.4,244.5,195.1,239.3z"/>
</g>
</svg>
