<?xml version="1.0" encoding="utf-8"?>
<!-- Generator: Adobe Illustrator 22.0.1, SVG Export Plug-In . SVG Version: 6.00 Build 0)  -->
<svg version="1.1" id="Layer_1" xmlns="http://www.w3.org/2000/svg" xmlns:xlink="http://www.w3.org/1999/xlink" x="0px" y="0px"
	 viewBox="0 0 512 512" style="enable-background:new 0 0 512 512;" xml:space="preserve">
<style type="text/css">
	.st0{fill:#FFFFFF;}
	.st1{fill:#FF583E;}
</style>
<rect class="st0" width="512" height="512"/>
<polygon points="111.4,191.2 101.4,179.7 258.7,41.7 410.5,179.8 400.3,191.1 258.5,62.1 "/>
<ellipse cx="258.6" cy="63.7" rx="35.6" ry="35.7"/>
<g>
	<path class="st1" d="M12.5,190.9c0-10.9,8.9-19.8,19.8-19.8h447.3c10.9,0,19.8,8.9,19.8,19.8v253.3c0,10.9-8.9,19.8-19.8,19.8H32.3
		c-10.9,0-19.8-8.9-19.8-19.8V190.9z"/>
</g>
<g>
	<path class="st0" d="M94.3,354c7.6,3.9,19.3,7.8,31.3,7.8c13,0,19.8-5.4,19.8-13.5c0-7.8-5.9-12.2-20.9-17.6
		c-20.7-7.2-34.2-18.7-34.2-36.9c0-21.3,17.8-37.6,47.2-37.6c14.1,0,24.4,3,31.8,6.3l-6.3,22.8c-5-2.4-13.9-5.9-26.1-5.9
		s-18.1,5.6-18.1,12c0,8,7,11.5,23.1,17.6c22,8.1,32.4,19.6,32.4,37.2c0,20.9-16.1,38.7-50.3,38.7c-14.3,0-28.3-3.7-35.4-7.6
		L94.3,354z"/>
	<path class="st0" d="M245.4,383l-1.7-9.1h-0.5c-5.9,7.2-15.2,11.1-25.9,11.1c-18.3,0-29.3-13.3-29.3-27.8
		c0-23.5,21.1-34.8,53.1-34.6v-1.3c0-4.8-2.6-11.7-16.5-11.7c-9.3,0-19.1,3.1-25,6.8l-5.2-18.2c6.3-3.5,18.7-8,35.2-8
		c30.2,0,39.8,17.8,39.8,39.1V361c0,8.7,0.4,17,1.3,22.1L245.4,383L245.4,383L245.4,383z M242,340.2c-14.8-0.2-26.3,3.3-26.3,14.3
		c0,7.2,4.8,10.7,11.1,10.7c7,0,12.8-4.6,14.6-10.4c0.4-1.5,0.6-3.2,0.6-4.8L242,340.2L242,340.2z"/>
	<path class="st0" d="M291.6,251.5h28.1V383h-28.1V251.5z"/>
	<path class="st0" d="M364.2,346.7c0.9,11.7,12.4,17.2,25.5,17.2c9.6,0,17.4-1.3,25-3.7l3.7,19.1c-9.2,3.7-20.5,5.6-32.8,5.6
		c-30.7,0-48.3-17.8-48.3-46.1c0-23,14.3-48.4,45.7-48.4c29.3,0,40.4,22.8,40.4,45.2c0,4.8-0.6,9.1-0.9,11.1L364.2,346.7
		L364.2,346.7z M397.3,327.5c0-6.8-3-18.3-15.9-18.3c-11.8,0-16.7,10.7-17.4,18.3H397.3z"/>
</g>
</svg>
