<?xml version="1.0" encoding="utf-8"?>
<!-- Generator: Adobe Illustrator 22.0.1, SVG Export Plug-In . SVG Version: 6.00 Build 0)  -->
<svg version="1.1" id="Layer_1" xmlns="http://www.w3.org/2000/svg" xmlns:xlink="http://www.w3.org/1999/xlink" x="0px" y="0px"
	 viewBox="0 0 512 512" style="enable-background:new 0 0 512 512;" xml:space="preserve">
<style type="text/css">
	.st0{fill:#7664E4;}
	.st1{fill:#EAEAEA;}
</style>
<path class="st0" d="M430.8,141l-56-56h-120h-14.4h-104l-56,56v52.8c0,20.2,13.6,36.5,32,41.9c0.5,0.2,1,0.4,1.6,0.5
	c3.2,0.8,6.4,0.8,9.6,0.8c24,0,44-19.2,44-44c0,24,20,44,44,44s44-19.2,44-44c0,24,20,44,44,44s44-19.2,44-44c0,24,20,44,44,44
	c3,0,6.5-0.7,9.6-1.4c0.3-0.1,0.6-0.1,0.8-0.2c19.2-4.8,33.6-21.6,33.6-42.4L430.8,141z"/>
<path class="st1" d="M211.6,374.6V273h88v101.6h97.6v-139c-3.1,0.7-6.6,1.4-9.6,1.4c-24,0-44-20-44-44c0,24.8-20,44-44,44
	s-44-20-44-44c0,24.8-20,44-44,44s-44-20-44-44c0,24.8-20,44-44,44c-3.2,0-6.4,0-9.6-0.8c-0.6-0.1-1.1-0.4-1.6-0.5v138.9h1.6H211.6z
	"/>
<polygon points="397.2,374.6 299.6,374.6 299.6,273 211.6,273 211.6,374.6 114,374.6 112.4,374.6 80.4,374.6 80.4,396.2 
	430.8,396.2 430.8,374.6 "/>
</svg>
